<svg xmlns="http://www.w3.org/2000/svg" xmlns:xlink="http://www.w3.org/1999/xlink" width="500" zoomAndPan="magnify" viewBox="0 0 375 112.499997" height="150" preserveAspectRatio="xMidYMid meet" version="1.0"><defs><g/></defs><g fill="#ffffff" fill-opacity="1"><g transform="translate(56.772419, 85.495016)"><g><path d="M 39.417969 -35.636719 C 38.050781 -41.738281 34.136719 -44.789062 27.671875 -44.789062 C 23.660156 -44.789062 20.464844 -43.15625 18.089844 -39.886719 C 15.710938 -36.621094 14.519531 -32.082031 14.519531 -26.269531 C 14.519531 -20.816406 15.675781 -16.4375 17.980469 -13.132812 C 20.285156 -9.832031 23.515625 -8.179688 27.671875 -8.179688 C 34.015625 -8.179688 37.929688 -11.507812 39.417969 -18.160156 L 50.480469 -18.160156 C 49.6875 -12.730469 47.3125 -8.113281 43.347656 -4.304688 C 39.382812 -0.5 34.085938 1.40625 27.457031 1.40625 C 20.058594 1.40625 14.171875 -1.039062 9.800781 -5.925781 C 5.429688 -10.816406 3.242188 -17.644531 3.242188 -26.410156 C 3.242188 -34.796875 5.417969 -41.550781 9.765625 -46.679688 C 14.113281 -51.808594 20.058594 -54.371094 27.601562 -54.371094 C 34.207031 -54.371094 39.546875 -52.589844 43.617188 -49.023438 C 47.6875 -45.453125 49.976562 -40.992188 50.480469 -35.636719 Z M 39.417969 -35.636719 "/></g></g></g><g fill="#ffffff" fill-opacity="1"><g transform="translate(108.874374, 85.495016)"><g><path d="M 19.207031 -20.070312 L 32.71875 -20.070312 L 26.125 -41.039062 L 25.980469 -41.039062 Z M 12.574219 0 L 0.902344 0 L 19.78125 -52.96875 L 32.574219 -52.96875 L 51.238281 0 L 39.203125 0 L 35.816406 -10.917969 L 16.25 -10.917969 Z M 12.574219 0 "/></g></g></g><g fill="#ffffff" fill-opacity="1"><g transform="translate(161.012389, 85.495016)"><g><path d="M 16.46875 0 L 5.40625 0 L 5.40625 -52.96875 L 16.46875 -52.96875 L 16.46875 -31.421875 L 36.71875 -52.96875 L 51.023438 -52.96875 L 29.402344 -31.277344 L 52.28125 0 L 38.015625 0 L 21.65625 -23.242188 L 16.46875 -17.945312 Z M 16.46875 0 "/></g></g></g><g fill="#ffffff" fill-opacity="1"><g transform="translate(213.654849, 85.495016)"><g><path d="M 29.222656 -29.65625 C 32.128906 -29.65625 34.285156 -30.207031 35.691406 -31.3125 C 37.09375 -32.417969 37.796875 -34.277344 37.796875 -36.898438 C 37.796875 -39.058594 37.144531 -40.757812 35.835938 -41.996094 C 34.523438 -43.234375 32.597656 -43.851562 30.050781 -43.851562 L 16.25 -43.851562 L 16.25 -29.65625 Z M 5.40625 -52.96875 L 32.175781 -52.96875 C 37.628906 -52.96875 41.773438 -51.507812 44.609375 -48.589844 C 47.441406 -45.671875 48.859375 -42.144531 48.859375 -38.015625 C 48.859375 -31.863281 46.132812 -27.660156 40.679688 -25.402344 C 43.203125 -24.441406 44.949219 -23.054688 45.921875 -21.242188 C 46.894531 -19.425781 47.382812 -16.15625 47.382812 -11.421875 C 47.382812 -6.714844 47.558594 -3.945312 47.90625 -3.117188 C 48.253906 -2.289062 48.859375 -1.71875 49.726562 -1.40625 L 49.726562 0 L 37.511719 0 C 36.71875 -2.378906 36.320312 -5.8125 36.320312 -10.304688 C 36.320312 -14.078125 36.070312 -16.507812 35.5625 -17.601562 C 35.058594 -18.695312 34.226562 -19.488281 33.058594 -19.980469 C 31.894531 -20.472656 30.097656 -20.71875 27.671875 -20.71875 L 16.25 -20.71875 L 16.25 0 L 5.40625 0 Z M 5.40625 -52.96875 "/></g></g></g><g fill="#ffffff" fill-opacity="1"><g transform="translate(266.081118, 85.495016)"><g><path d="M 19.207031 -20.070312 L 32.71875 -20.070312 L 26.125 -41.039062 L 25.980469 -41.039062 Z M 12.574219 0 L 0.902344 0 L 19.78125 -52.96875 L 32.574219 -52.96875 L 51.238281 0 L 39.203125 0 L 35.816406 -10.917969 L 16.25 -10.917969 Z M 12.574219 0 "/></g></g></g><g fill="#ffffff" fill-opacity="1"><g transform="translate(336.836265, 28.826612)"><g><path d="M 2.976562 -7.460938 C 2.976562 -5.699219 3.515625 -4.234375 4.589844 -3.0625 C 5.667969 -1.890625 7.042969 -1.304688 8.71875 -1.304688 C 10.269531 -1.304688 11.609375 -1.886719 12.730469 -3.042969 C 13.855469 -4.199219 14.417969 -5.671875 14.417969 -7.460938 C 14.417969 -9.210938 13.867188 -10.667969 12.765625 -11.832031 C 11.667969 -12.996094 10.316406 -13.578125 8.71875 -13.578125 C 7.058594 -13.578125 5.683594 -13 4.601562 -11.839844 C 3.519531 -10.683594 2.976562 -9.222656 2.976562 -7.460938 Z M 8.71875 0.394531 C 6.476562 0.394531 4.597656 -0.335938 3.082031 -1.796875 C 1.566406 -3.257812 0.808594 -5.148438 0.808594 -7.460938 C 0.808594 -9.742188 1.546875 -11.617188 3.023438 -13.082031 C 4.496094 -14.546875 6.394531 -15.277344 8.71875 -15.277344 C 10.945312 -15.277344 12.8125 -14.5625 14.316406 -13.125 C 15.820312 -11.691406 16.574219 -9.804688 16.574219 -7.460938 C 16.574219 -5.121094 15.808594 -3.226562 14.28125 -1.777344 C 12.753906 -0.328125 10.898438 0.394531 8.71875 0.394531 Z M 8.726562 -8.109375 C 9.320312 -8.109375 9.726562 -8.199219 9.949219 -8.378906 C 10.167969 -8.558594 10.277344 -8.84375 10.277344 -9.234375 C 10.277344 -9.5625 10.15625 -9.816406 9.910156 -9.988281 C 9.667969 -10.160156 9.296875 -10.246094 8.796875 -10.246094 L 7.402344 -10.246094 L 7.402344 -8.109375 Z M 7.402344 -3.300781 L 5.597656 -3.300781 L 5.597656 -11.746094 L 9.03125 -11.746094 C 10.097656 -11.746094 10.894531 -11.546875 11.421875 -11.148438 C 11.945312 -10.75 12.210938 -10.113281 12.210938 -9.242188 C 12.210938 -7.925781 11.597656 -7.144531 10.378906 -6.894531 L 12.332031 -3.300781 L 10.296875 -3.300781 L 8.574219 -6.753906 L 7.402344 -6.753906 Z M 7.402344 -3.300781 "/></g></g></g></svg>