<svg xmlns="http://www.w3.org/2000/svg" xmlns:xlink="http://www.w3.org/1999/xlink" width="500" zoomAndPan="magnify" viewBox="0 0 375 374.999991" height="500" preserveAspectRatio="xMidYMid meet" version="1.0"><defs><g/><clipPath id="0c2c2b0d8d"><path d="M 187.5 0 C 83.945312 0 0 83.945312 0 187.5 C 0 291.054688 83.945312 375 187.5 375 C 291.054688 375 375 291.054688 375 187.5 C 375 83.945312 291.054688 0 187.5 0 Z M 187.5 0 " clip-rule="nonzero"/></clipPath></defs><g clip-path="url(#0c2c2b0d8d)"><rect x="-37.5" width="450" fill="#901c1c" y="-37.499999" height="449.999989" fill-opacity="1"/></g><g fill="#ffffff" fill-opacity="1"><g transform="translate(35.308104, 221.981421)"><g><path d="M 45.890625 -41.484375 C 44.296875 -48.585938 39.738281 -52.140625 32.21875 -52.140625 C 27.539062 -52.140625 23.816406 -50.238281 21.046875 -46.4375 C 18.285156 -42.632812 16.90625 -37.347656 16.90625 -30.578125 C 16.90625 -24.234375 18.242188 -19.132812 20.921875 -15.28125 C 23.609375 -11.4375 27.375 -9.515625 32.21875 -9.515625 C 39.59375 -9.515625 44.148438 -13.390625 45.890625 -21.140625 L 58.765625 -21.140625 C 57.835938 -14.816406 55.066406 -9.4375 50.453125 -5 C 45.847656 -0.570312 39.6875 1.640625 31.96875 1.640625 C 23.351562 1.640625 16.5 -1.203125 11.40625 -6.890625 C 6.320312 -12.585938 3.78125 -20.539062 3.78125 -30.75 C 3.78125 -40.507812 6.304688 -48.375 11.359375 -54.34375 C 16.421875 -60.3125 23.34375 -63.296875 32.125 -63.296875 C 39.820312 -63.296875 46.039062 -61.21875 50.78125 -57.0625 C 55.519531 -52.914062 58.179688 -47.722656 58.765625 -41.484375 Z M 45.890625 -41.484375 "/></g></g></g><g fill="#ffffff" fill-opacity="1"><g transform="translate(95.964746, 221.981421)"><g><path d="M 22.359375 -23.359375 L 38.09375 -23.359375 L 30.40625 -47.78125 L 30.25 -47.78125 Z M 14.640625 0 L 1.046875 0 L 23.03125 -61.65625 L 37.921875 -61.65625 L 59.640625 0 L 45.640625 0 L 41.6875 -12.703125 L 18.921875 -12.703125 Z M 14.640625 0 "/></g></g></g><g fill="#ffffff" fill-opacity="1"><g transform="translate(156.663369, 221.981421)"><g><path d="M 19.171875 0 L 6.296875 0 L 6.296875 -61.65625 L 19.171875 -61.65625 L 19.171875 -36.578125 L 42.75 -61.65625 L 59.390625 -61.65625 L 34.234375 -36.40625 L 60.859375 0 L 44.25 0 L 25.203125 -27.0625 L 19.171875 -20.890625 Z M 19.171875 0 "/></g></g></g><g fill="#ffffff" fill-opacity="1"><g transform="translate(217.949263, 221.981421)"><g><path d="M 34.015625 -34.515625 C 37.398438 -34.515625 39.910156 -35.15625 41.546875 -36.4375 C 43.179688 -37.726562 44 -39.898438 44 -42.953125 C 44 -45.472656 43.234375 -47.453125 41.703125 -48.890625 C 40.179688 -50.328125 37.941406 -51.046875 34.984375 -51.046875 L 18.921875 -51.046875 L 18.921875 -34.515625 Z M 6.296875 -61.65625 L 37.453125 -61.65625 C 43.804688 -61.65625 48.628906 -59.957031 51.921875 -56.5625 C 55.222656 -53.164062 56.875 -49.0625 56.875 -44.25 C 56.875 -37.09375 53.703125 -32.203125 47.359375 -29.578125 C 50.296875 -28.453125 52.328125 -26.832031 53.453125 -24.71875 C 54.585938 -22.613281 55.15625 -18.804688 55.15625 -13.296875 C 55.15625 -7.816406 55.359375 -4.59375 55.765625 -3.625 C 56.171875 -2.664062 56.878906 -2.003906 57.890625 -1.640625 L 57.890625 0 L 43.671875 0 C 42.742188 -2.769531 42.28125 -6.769531 42.28125 -12 C 42.28125 -16.382812 41.984375 -19.210938 41.390625 -20.484375 C 40.804688 -21.765625 39.835938 -22.691406 38.484375 -23.265625 C 37.128906 -23.835938 35.039062 -24.125 32.21875 -24.125 L 18.921875 -24.125 L 18.921875 0 L 6.296875 0 Z M 6.296875 -61.65625 "/></g></g></g><g fill="#ffffff" fill-opacity="1"><g transform="translate(278.98347, 221.981421)"><g><path d="M 22.359375 -23.359375 L 38.09375 -23.359375 L 30.40625 -47.78125 L 30.25 -47.78125 Z M 14.640625 0 L 1.046875 0 L 23.03125 -61.65625 L 37.921875 -61.65625 L 59.640625 0 L 45.640625 0 L 41.6875 -12.703125 L 18.921875 -12.703125 Z M 14.640625 0 "/></g></g></g></svg>