<svg xmlns="http://www.w3.org/2000/svg" xmlns:xlink="http://www.w3.org/1999/xlink" width="500" zoomAndPan="magnify" viewBox="0 0 375 374.999991" height="500" preserveAspectRatio="xMidYMid meet" version="1.0"><defs><g/><clipPath id="56d9b89775"><path d="M 187.5 0 C 83.945312 0 0 83.945312 0 187.5 C 0 291.054688 83.945312 375 187.5 375 C 291.054688 375 375 291.054688 375 187.5 C 375 83.945312 291.054688 0 187.5 0 Z M 187.5 0 " clip-rule="nonzero"/></clipPath></defs><g clip-path="url(#56d9b89775)"><rect x="-37.5" width="450" fill="#092b53" y="-37.499999" height="449.999989" fill-opacity="1"/></g><g fill="#ffffff" fill-opacity="1"><g transform="translate(21.168723, 221.981421)"><g><path d="M 31.125 -32.890625 C 34.394531 -32.890625 36.8125 -33.648438 38.375 -35.171875 C 39.945312 -36.691406 40.734375 -39.046875 40.734375 -42.234375 C 40.734375 -45.453125 39.84375 -47.722656 38.0625 -49.046875 C 36.289062 -50.378906 33.65625 -51.046875 30.15625 -51.046875 L 19.171875 -51.046875 L 19.171875 -32.890625 Z M 19.171875 0 L 6.296875 0 L 6.296875 -61.65625 L 34.4375 -61.65625 C 40.3125 -61.65625 44.972656 -59.894531 48.421875 -56.375 C 51.878906 -52.851562 53.609375 -48.03125 53.609375 -41.90625 C 53.609375 -36.625 51.914062 -32.023438 48.53125 -28.109375 C 45.144531 -24.191406 40.28125 -22.234375 33.9375 -22.234375 L 19.171875 -22.234375 Z M 19.171875 0 "/></g></g></g><g fill="#ffffff" fill-opacity="1"><g transform="translate(77.924243, 221.981421)"><g><path d="M 34.015625 -34.515625 C 37.398438 -34.515625 39.910156 -35.15625 41.546875 -36.4375 C 43.179688 -37.726562 44 -39.898438 44 -42.953125 C 44 -45.472656 43.234375 -47.453125 41.703125 -48.890625 C 40.179688 -50.328125 37.941406 -51.046875 34.984375 -51.046875 L 18.921875 -51.046875 L 18.921875 -34.515625 Z M 6.296875 -61.65625 L 37.453125 -61.65625 C 43.804688 -61.65625 48.628906 -59.957031 51.921875 -56.5625 C 55.222656 -53.164062 56.875 -49.0625 56.875 -44.25 C 56.875 -37.09375 53.703125 -32.203125 47.359375 -29.578125 C 50.296875 -28.453125 52.328125 -26.832031 53.453125 -24.71875 C 54.585938 -22.613281 55.15625 -18.804688 55.15625 -13.296875 C 55.15625 -7.816406 55.359375 -4.59375 55.765625 -3.625 C 56.171875 -2.664062 56.878906 -2.003906 57.890625 -1.640625 L 57.890625 0 L 43.671875 0 C 42.742188 -2.769531 42.28125 -6.769531 42.28125 -12 C 42.28125 -16.382812 41.984375 -19.210938 41.390625 -20.484375 C 40.804688 -21.765625 39.835938 -22.691406 38.484375 -23.265625 C 37.128906 -23.835938 35.039062 -24.125 32.21875 -24.125 L 18.921875 -24.125 L 18.921875 0 L 6.296875 0 Z M 6.296875 -61.65625 "/></g></g></g><g fill="#ffffff" fill-opacity="1"><g transform="translate(138.95845, 221.981421)"><g><path d="M 19.171875 0 L 6.296875 0 L 6.296875 -61.65625 L 19.171875 -61.65625 Z M 19.171875 0 "/></g></g></g><g fill="#ffffff" fill-opacity="1"><g transform="translate(164.420834, 221.981421)"><g><path d="M 66.109375 0 L 54.0625 0 L 54.0625 -41.65625 L 54.234375 -51.546875 L 53.90625 -51.546875 L 42.359375 0 L 29.734375 0 L 18.5 -51.546875 L 18.203125 -51.546875 L 18.328125 -41.65625 L 18.328125 0 L 6.296875 0 L 6.296875 -61.65625 L 25.125 -61.65625 L 36.234375 -13.046875 L 36.5 -13.046875 L 47.4375 -61.65625 L 66.109375 -61.65625 Z M 66.109375 0 "/></g></g></g><g fill="#ffffff" fill-opacity="1"><g transform="translate(236.822916, 221.981421)"><g><path d="M 22.359375 -23.359375 L 38.09375 -23.359375 L 30.40625 -47.78125 L 30.25 -47.78125 Z M 14.640625 0 L 1.046875 0 L 23.03125 -61.65625 L 37.921875 -61.65625 L 59.640625 0 L 45.640625 0 L 41.6875 -12.703125 L 18.921875 -12.703125 Z M 14.640625 0 "/></g></g></g><g fill="#ffffff" fill-opacity="1"><g transform="translate(296.221121, 221.981421)"><g><path d="M 15.9375 -19 C 15.9375 -15.945312 17.0625 -13.519531 19.3125 -11.71875 C 21.5625 -9.914062 24.785156 -9.015625 28.984375 -9.015625 C 33.179688 -9.015625 36.375 -9.691406 38.5625 -11.046875 C 40.757812 -12.410156 41.859375 -14.40625 41.859375 -17.03125 C 41.859375 -18.59375 41.289062 -19.945312 40.15625 -21.09375 C 39.03125 -22.238281 36.34375 -23.316406 32.09375 -24.328125 L 21.609375 -26.765625 C 14.972656 -28.328125 10.457031 -30.457031 8.0625 -33.15625 C 5.675781 -35.851562 4.484375 -39.582031 4.484375 -44.34375 C 4.484375 -49.90625 6.460938 -54.453125 10.421875 -57.984375 C 14.378906 -61.523438 20.316406 -63.296875 28.234375 -63.296875 C 36.085938 -63.296875 42.046875 -61.3125 46.109375 -57.34375 C 50.179688 -53.375 52.234375 -48.71875 52.265625 -43.375 L 39.890625 -43.375 C 39.609375 -46.394531 38.429688 -48.691406 36.359375 -50.265625 C 34.296875 -51.847656 31.265625 -52.640625 27.265625 -52.640625 C 24.046875 -52.640625 21.453125 -51.972656 19.484375 -50.640625 C 17.515625 -49.316406 16.53125 -47.523438 16.53125 -45.265625 C 16.53125 -43.691406 16.960938 -42.390625 17.828125 -41.359375 C 18.691406 -40.328125 20.085938 -39.570312 22.015625 -39.09375 L 38.5 -35.03125 C 44.457031 -33.570312 48.566406 -31.476562 50.828125 -28.75 C 53.097656 -26.03125 54.234375 -22.628906 54.234375 -18.546875 C 54.234375 -11.828125 51.90625 -6.78125 47.25 -3.40625 C 42.59375 -0.0390625 36.828125 1.640625 29.953125 1.640625 C 21.054688 1.640625 14.429688 -0.253906 10.078125 -4.046875 C 5.734375 -7.835938 3.5625 -12.820312 3.5625 -19 Z M 15.9375 -19 "/></g></g></g></svg>