<svg xmlns="http://www.w3.org/2000/svg" xmlns:xlink="http://www.w3.org/1999/xlink" width="500" zoomAndPan="magnify" viewBox="0 0 375 374.999991" height="500" preserveAspectRatio="xMidYMid meet" version="1.0"><defs><clipPath id="af7167c81a"><path d="M 14.941406 11.613281 L 360.058594 11.613281 L 360.058594 363.472656 L 14.941406 363.472656 Z M 14.941406 11.613281 " clip-rule="nonzero"/></clipPath><clipPath id="96765c0971"><path d="M 89.941406 11.613281 L 285.058594 11.613281 C 326.480469 11.613281 360.058594 45.191406 360.058594 86.613281 L 360.058594 288.386719 C 360.058594 329.808594 326.480469 363.386719 285.058594 363.386719 L 89.941406 363.386719 C 48.519531 363.386719 14.941406 329.808594 14.941406 288.386719 L 14.941406 86.613281 C 14.941406 45.191406 48.519531 11.613281 89.941406 11.613281 Z M 89.941406 11.613281 " clip-rule="nonzero"/></clipPath></defs><g clip-path="url(#af7167c81a)"><g clip-path="url(#96765c0971)"><path fill="#084370" d="M 14.941406 11.613281 L 360.058594 11.613281 L 360.058594 363.472656 L 14.941406 363.472656 Z M 14.941406 11.613281 " fill-opacity="1" fill-rule="nonzero"/></g></g><path fill="#ffffff" d="M 86.054688 188.847656 C 88.511719 188.847656 90.328125 188.28125 91.5 187.140625 C 92.675781 185.992188 93.261719 184.226562 93.261719 181.832031 C 93.261719 179.414062 92.59375 177.707031 91.253906 176.714844 C 89.925781 175.714844 87.953125 175.214844 85.328125 175.214844 L 77.082031 175.214844 L 77.082031 188.847656 Z M 77.082031 213.515625 L 67.414062 213.515625 L 67.414062 167.257812 L 88.539062 167.257812 C 92.953125 167.257812 96.453125 168.582031 99.039062 171.230469 C 101.632812 173.871094 102.929688 177.484375 102.929688 182.078125 C 102.929688 186.046875 101.660156 189.496094 99.121094 192.433594 C 96.582031 195.375 92.929688 196.84375 88.167969 196.84375 L 77.082031 196.84375 Z M 77.082031 213.515625 " fill-opacity="1" fill-rule="nonzero"/><path fill="#ffffff" d="M 130.828125 187.617188 C 133.367188 187.617188 135.253906 187.136719 136.480469 186.171875 C 137.710938 185.210938 138.324219 183.578125 138.324219 181.285156 C 138.324219 179.402344 137.753906 177.921875 136.605469 176.835938 C 135.464844 175.757812 133.78125 175.214844 131.554688 175.214844 L 119.496094 175.214844 L 119.496094 187.617188 Z M 110.019531 167.257812 L 133.410156 167.257812 C 138.179688 167.257812 141.800781 168.535156 144.28125 171.078125 C 146.753906 173.628906 147.992188 176.707031 147.992188 180.316406 C 147.992188 185.6875 145.609375 189.359375 140.851562 191.328125 C 143.054688 192.167969 144.578125 193.382812 145.425781 194.972656 C 146.28125 196.554688 146.710938 199.414062 146.710938 203.542969 C 146.710938 207.65625 146.859375 210.074219 147.160156 210.800781 C 147.460938 211.523438 147.988281 212.015625 148.746094 212.289062 L 148.746094 213.515625 L 138.078125 213.515625 C 137.386719 211.445312 137.042969 208.441406 137.042969 204.511719 C 137.042969 201.21875 136.816406 199.101562 136.375 198.152344 C 135.9375 197.195312 135.207031 196.507812 134.1875 196.078125 C 133.167969 195.640625 131.597656 195.421875 129.476562 195.421875 L 119.496094 195.421875 L 119.496094 213.515625 L 110.019531 213.515625 Z M 110.019531 167.257812 " fill-opacity="1" fill-rule="nonzero"/><path fill="#ffffff" d="M 155.835938 167.257812 L 165.503906 167.257812 L 165.503906 213.515625 L 155.835938 213.515625 Z M 155.835938 167.257812 " fill-opacity="1" fill-rule="nonzero"/><path fill="#ffffff" d="M 219.847656 213.515625 L 210.820312 213.515625 L 210.820312 182.269531 L 210.945312 174.84375 L 210.683594 174.84375 L 202.027344 213.515625 L 192.550781 213.515625 L 184.113281 174.84375 L 183.894531 174.84375 L 183.988281 182.269531 L 183.988281 213.515625 L 174.949219 213.515625 L 174.949219 167.257812 L 189.082031 167.257812 L 197.4375 203.734375 L 197.617188 203.734375 L 205.835938 167.257812 L 219.847656 167.257812 Z M 219.847656 213.515625 " fill-opacity="1" fill-rule="nonzero"/><path fill="#ffffff" d="M 241.355469 195.984375 L 253.167969 195.984375 L 247.40625 177.671875 L 247.285156 177.671875 Z M 235.566406 213.515625 L 225.367188 213.515625 L 241.863281 167.257812 L 253.046875 167.257812 L 269.351562 213.515625 L 258.835938 213.515625 L 255.871094 203.980469 L 238.777344 203.980469 Z M 235.566406 213.515625 " fill-opacity="1" fill-rule="nonzero"/><path fill="#ffffff" d="M 281.125 199.257812 C 281.125 201.550781 281.972656 203.375 283.664062 204.730469 C 285.359375 206.078125 287.777344 206.75 290.929688 206.75 C 294.070312 206.75 296.464844 206.242188 298.113281 205.222656 C 299.769531 204.203125 300.597656 202.710938 300.597656 200.746094 C 300.597656 199.570312 300.167969 198.554688 299.3125 197.6875 C 298.46875 196.824219 296.445312 196.015625 293.25 195.257812 L 285.386719 193.445312 C 280.40625 192.269531 277.019531 190.671875 275.226562 188.640625 C 273.429688 186.613281 272.535156 183.816406 272.535156 180.25 C 272.535156 176.074219 274.019531 172.660156 276.988281 170.015625 C 279.953125 167.359375 284.410156 166.03125 290.355469 166.03125 C 296.253906 166.03125 300.726562 167.523438 303.78125 170.507812 C 306.839844 173.480469 308.375 176.96875 308.394531 180.972656 L 299.109375 180.972656 C 298.898438 178.707031 298.015625 176.984375 296.460938 175.800781 C 294.910156 174.621094 292.636719 174.027344 289.632812 174.027344 C 287.21875 174.027344 285.269531 174.527344 283.789062 175.527344 C 282.3125 176.519531 281.578125 177.867188 281.578125 179.566406 C 281.578125 180.742188 281.898438 181.714844 282.546875 182.488281 C 283.203125 183.261719 284.253906 183.832031 285.699219 184.191406 L 298.070312 187.234375 C 302.539062 188.328125 305.625 189.898438 307.328125 191.945312 C 309.03125 193.992188 309.882812 196.550781 309.882812 199.613281 C 309.882812 204.644531 308.136719 208.425781 304.640625 210.953125 C 301.144531 213.484375 296.816406 214.746094 291.652344 214.746094 C 284.96875 214.746094 279.996094 213.328125 276.730469 210.488281 C 273.46875 207.644531 271.839844 203.898438 271.839844 199.257812 Z M 281.125 199.257812 " fill-opacity="1" fill-rule="nonzero"/><path fill="#ffffff" d="M 320.652344 157.503906 C 320.652344 159.054688 321.121094 160.335938 322.058594 161.351562 C 323.003906 162.371094 324.210938 162.882812 325.679688 162.882812 C 327.035156 162.882812 328.203125 162.375 329.1875 161.367188 C 330.171875 160.355469 330.664062 159.070312 330.664062 157.503906 C 330.664062 155.988281 330.175781 154.71875 329.214844 153.699219 C 328.25 152.679688 327.070312 152.167969 325.679688 152.167969 C 324.21875 152.167969 323.019531 152.675781 322.074219 153.683594 C 321.125 154.695312 320.652344 155.96875 320.652344 157.503906 Z M 325.679688 164.367188 C 323.71875 164.367188 322.078125 163.734375 320.75 162.457031 C 319.425781 161.183594 318.769531 159.535156 318.769531 157.503906 C 318.769531 155.511719 319.410156 153.882812 320.695312 152.605469 C 321.984375 151.324219 323.648438 150.679688 325.679688 150.679688 C 327.625 150.679688 329.257812 151.308594 330.566406 152.566406 C 331.882812 153.820312 332.546875 155.46875 332.546875 157.503906 C 332.546875 159.550781 331.878906 161.210938 330.539062 162.472656 C 329.203125 163.738281 327.578125 164.367188 325.679688 164.367188 Z M 325.691406 156.945312 C 326.210938 156.945312 326.566406 156.871094 326.757812 156.714844 C 326.949219 156.558594 327.042969 156.308594 327.042969 155.960938 C 327.042969 155.671875 326.933594 155.453125 326.714844 155.308594 C 326.503906 155.152344 326.183594 155.074219 325.746094 155.074219 L 324.53125 155.074219 L 324.53125 156.945312 Z M 324.53125 161.148438 L 322.945312 161.148438 L 322.945312 153.765625 L 325.953125 153.765625 C 326.878906 153.765625 327.570312 153.941406 328.027344 154.296875 C 328.492188 154.644531 328.722656 155.195312 328.722656 155.949219 C 328.722656 157.105469 328.191406 157.792969 327.125 158.007812 L 328.832031 161.148438 L 327.058594 161.148438 L 325.554688 158.132812 L 324.53125 158.132812 Z M 324.53125 161.148438 " fill-opacity="1" fill-rule="nonzero"/></svg>