<svg xmlns="http://www.w3.org/2000/svg" xmlns:xlink="http://www.w3.org/1999/xlink" width="500" zoomAndPan="magnify" viewBox="0 0 375 112.499997" height="150" preserveAspectRatio="xMidYMid meet" version="1.0"><defs><g/></defs><g fill="#ffffff" fill-opacity="1"><g transform="translate(44.62718, 86.066981)"><g><path d="M 26.734375 -28.25 C 29.546875 -28.25 31.625 -28.898438 32.96875 -30.203125 C 34.3125 -31.515625 34.984375 -33.539062 34.984375 -36.28125 C 34.984375 -39.050781 34.21875 -41.003906 32.6875 -42.140625 C 31.164062 -43.285156 28.90625 -43.859375 25.90625 -43.859375 L 16.46875 -43.859375 L 16.46875 -28.25 Z M 16.46875 0 L 5.40625 0 L 5.40625 -52.96875 L 29.578125 -52.96875 C 34.628906 -52.96875 38.632812 -51.453125 41.59375 -48.421875 C 44.5625 -45.398438 46.046875 -41.257812 46.046875 -36 C 46.046875 -31.457031 44.59375 -27.503906 41.6875 -24.140625 C 38.78125 -20.773438 34.601562 -19.09375 29.15625 -19.09375 L 16.46875 -19.09375 Z M 16.46875 0 "/></g></g></g><g fill="#ffffff" fill-opacity="1"><g transform="translate(93.378206, 86.066981)"><g><path d="M 29.21875 -29.65625 C 32.125 -29.65625 34.28125 -30.207031 35.6875 -31.3125 C 37.09375 -32.414062 37.796875 -34.28125 37.796875 -36.90625 C 37.796875 -39.0625 37.140625 -40.757812 35.828125 -42 C 34.523438 -43.238281 32.597656 -43.859375 30.046875 -43.859375 L 16.25 -43.859375 L 16.25 -29.65625 Z M 5.40625 -52.96875 L 32.171875 -52.96875 C 37.628906 -52.96875 41.773438 -51.507812 44.609375 -48.59375 C 47.441406 -45.675781 48.859375 -42.148438 48.859375 -38.015625 C 48.859375 -31.867188 46.132812 -27.664062 40.6875 -25.40625 C 43.207031 -24.445312 44.953125 -23.054688 45.921875 -21.234375 C 46.898438 -19.421875 47.390625 -16.148438 47.390625 -11.421875 C 47.390625 -6.710938 47.5625 -3.941406 47.90625 -3.109375 C 48.25 -2.285156 48.851562 -1.71875 49.71875 -1.40625 L 49.71875 0 L 37.515625 0 C 36.722656 -2.375 36.328125 -5.8125 36.328125 -10.3125 C 36.328125 -14.082031 36.070312 -16.507812 35.5625 -17.59375 C 35.0625 -18.6875 34.226562 -19.476562 33.0625 -19.96875 C 31.894531 -20.46875 30.097656 -20.71875 27.671875 -20.71875 L 16.25 -20.71875 L 16.25 0 L 5.40625 0 Z M 5.40625 -52.96875 "/></g></g></g><g fill="#ffffff" fill-opacity="1"><g transform="translate(145.804476, 86.066981)"><g><path d="M 16.46875 0 L 5.40625 0 L 5.40625 -52.96875 L 16.46875 -52.96875 Z M 16.46875 0 "/></g></g></g><g fill="#ffffff" fill-opacity="1"><g transform="translate(167.675782, 86.066981)"><g><path d="M 56.78125 0 L 46.453125 0 L 46.453125 -35.78125 L 46.59375 -44.28125 L 46.296875 -44.28125 L 36.390625 0 L 25.546875 0 L 15.890625 -44.28125 L 15.640625 -44.28125 L 15.75 -35.78125 L 15.75 0 L 5.40625 0 L 5.40625 -52.96875 L 21.578125 -52.96875 L 31.140625 -11.203125 L 31.34375 -11.203125 L 40.75 -52.96875 L 56.78125 -52.96875 Z M 56.78125 0 "/></g></g></g><g fill="#ffffff" fill-opacity="1"><g transform="translate(229.866663, 86.066981)"><g><path d="M 19.203125 -20.078125 L 32.71875 -20.078125 L 26.125 -41.046875 L 25.984375 -41.046875 Z M 12.578125 0 L 0.90625 0 L 19.78125 -52.96875 L 32.578125 -52.96875 L 51.234375 0 L 39.203125 0 L 35.8125 -10.921875 L 16.25 -10.921875 Z M 12.578125 0 "/></g></g></g><g fill="#ffffff" fill-opacity="1"><g transform="translate(280.887664, 86.066981)"><g><path d="M 13.6875 -16.328125 C 13.6875 -13.703125 14.65625 -11.613281 16.59375 -10.0625 C 18.53125 -8.519531 21.300781 -7.75 24.90625 -7.75 C 28.5 -7.75 31.238281 -8.332031 33.125 -9.5 C 35.019531 -10.664062 35.96875 -12.375 35.96875 -14.625 C 35.96875 -15.96875 35.476562 -17.132812 34.5 -18.125 C 33.53125 -19.113281 31.21875 -20.039062 27.5625 -20.90625 L 18.5625 -22.984375 C 12.863281 -24.328125 8.988281 -26.160156 6.9375 -28.484375 C 4.882812 -30.804688 3.859375 -34.007812 3.859375 -38.09375 C 3.859375 -42.875 5.554688 -46.78125 8.953125 -49.8125 C 12.347656 -52.851562 17.445312 -54.375 24.25 -54.375 C 31 -54.375 36.117188 -52.664062 39.609375 -49.25 C 43.109375 -45.84375 44.867188 -41.847656 44.890625 -37.265625 L 34.265625 -37.265625 C 34.023438 -39.859375 33.015625 -41.832031 31.234375 -43.1875 C 29.460938 -44.539062 26.859375 -45.21875 23.421875 -45.21875 C 20.660156 -45.21875 18.429688 -44.644531 16.734375 -43.5 C 15.046875 -42.363281 14.203125 -40.820312 14.203125 -38.875 C 14.203125 -37.53125 14.570312 -36.414062 15.3125 -35.53125 C 16.0625 -34.644531 17.265625 -33.992188 18.921875 -33.578125 L 33.078125 -30.09375 C 38.191406 -28.84375 41.722656 -27.046875 43.671875 -24.703125 C 45.617188 -22.359375 46.59375 -19.429688 46.59375 -15.921875 C 46.59375 -10.160156 44.59375 -5.832031 40.59375 -2.9375 C 36.59375 -0.0390625 31.640625 1.40625 25.734375 1.40625 C 18.085938 1.40625 12.394531 -0.21875 8.65625 -3.46875 C 4.925781 -6.726562 3.0625 -11.015625 3.0625 -16.328125 Z M 13.6875 -16.328125 "/></g></g></g><g fill="#ffffff" fill-opacity="1"><g transform="translate(336.836265, 29.398578)"><g><path d="M 2.96875 -7.46875 C 2.96875 -5.695312 3.503906 -4.226562 4.578125 -3.0625 C 5.660156 -1.894531 7.039062 -1.3125 8.71875 -1.3125 C 10.269531 -1.3125 11.609375 -1.890625 12.734375 -3.046875 C 13.859375 -4.203125 14.421875 -5.675781 14.421875 -7.46875 C 14.421875 -9.207031 13.867188 -10.660156 12.765625 -11.828125 C 11.660156 -12.992188 10.3125 -13.578125 8.71875 -13.578125 C 7.050781 -13.578125 5.675781 -13 4.59375 -11.84375 C 3.507812 -10.6875 2.96875 -9.226562 2.96875 -7.46875 Z M 8.71875 0.390625 C 6.476562 0.390625 4.597656 -0.335938 3.078125 -1.796875 C 1.566406 -3.253906 0.8125 -5.144531 0.8125 -7.46875 C 0.8125 -9.75 1.546875 -11.617188 3.015625 -13.078125 C 4.492188 -14.546875 6.394531 -15.28125 8.71875 -15.28125 C 10.945312 -15.28125 12.8125 -14.5625 14.3125 -13.125 C 15.820312 -11.6875 16.578125 -9.800781 16.578125 -7.46875 C 16.578125 -5.125 15.8125 -3.226562 14.28125 -1.78125 C 12.75 -0.332031 10.894531 0.390625 8.71875 0.390625 Z M 8.734375 -8.109375 C 9.328125 -8.109375 9.734375 -8.195312 9.953125 -8.375 C 10.171875 -8.550781 10.28125 -8.835938 10.28125 -9.234375 C 10.28125 -9.566406 10.15625 -9.816406 9.90625 -9.984375 C 9.664062 -10.160156 9.296875 -10.25 8.796875 -10.25 L 7.40625 -10.25 L 7.40625 -8.109375 Z M 7.40625 -3.296875 L 5.59375 -3.296875 L 5.59375 -11.75 L 9.03125 -11.75 C 10.09375 -11.75 10.882812 -11.546875 11.40625 -11.140625 C 11.9375 -10.742188 12.203125 -10.113281 12.203125 -9.25 C 12.203125 -7.925781 11.59375 -7.140625 10.375 -6.890625 L 12.328125 -3.296875 L 10.296875 -3.296875 L 8.578125 -6.75 L 7.40625 -6.75 Z M 7.40625 -3.296875 "/></g></g></g></svg>