<svg xmlns="http://www.w3.org/2000/svg" xmlns:xlink="http://www.w3.org/1999/xlink" width="500" zoomAndPan="magnify" viewBox="0 0 375 374.999991" height="500" preserveAspectRatio="xMidYMid meet" version="1.0"><defs><clipPath id="63bc235517"><path d="M 73.964844 73.964844 L 301.214844 73.964844 L 301.214844 301.214844 L 73.964844 301.214844 Z M 73.964844 73.964844 " clip-rule="nonzero"/></clipPath></defs><rect x="-37.5" width="450" fill="#ffffff" y="-37.499999" height="449.999989" fill-opacity="1"/><rect x="-37.5" width="450" fill="#ffffff" y="-37.499999" height="449.999989" fill-opacity="1"/><g clip-path="url(#63bc235517)"><path fill="#e62129" d="M 73.964844 187.589844 C 73.964844 124.839844 124.839844 73.964844 187.589844 73.964844 C 250.335938 73.964844 301.214844 124.839844 301.214844 187.589844 C 301.214844 250.335938 250.335938 301.214844 187.589844 301.214844 C 124.839844 301.214844 73.964844 250.335938 73.964844 187.589844 Z M 73.964844 187.589844 " fill-opacity="1" fill-rule="evenodd"/></g><path fill="#fefefe" d="M 197.339844 159.820312 L 197.339844 176.882812 C 197.339844 176.882812 185.679688 174.128906 185.679688 180.59375 C 185.679688 189.285156 199.035156 190.453125 199.035156 205.820312 C 199.035156 221.296875 184.304688 227.972656 174.976562 227.972656 L 166.601562 227.972656 L 166.601562 211.863281 C 166.601562 211.863281 171.265625 212.605469 173.808594 212.605469 C 176.355469 212.605469 179.429688 212.179688 179.429688 206.5625 C 179.429688 198.402344 165.859375 197.023438 165.859375 181.972656 C 165.859375 167.027344 178.050781 161.621094 184.089844 160.457031 C 190.132812 159.289062 197.445312 159.714844 197.445312 159.714844 Z M 197.339844 159.820312 " fill-opacity="1" fill-rule="evenodd"/><path fill="#fefefe" d="M 116.996094 191.617188 L 116.996094 208.683594 C 116.996094 208.683594 105.339844 205.925781 105.339844 212.390625 C 105.339844 221.082031 118.695312 222.25 118.695312 237.617188 C 118.695312 250.550781 108.414062 257.332031 99.507812 259.242188 C 95.585938 254.472656 92.089844 249.382812 89.015625 244.085938 C 90.5 244.296875 92.195312 244.402344 93.46875 244.402344 C 96.011719 244.402344 99.085938 243.976562 99.085938 238.359375 C 99.085938 230.199219 85.519531 228.820312 85.519531 213.769531 C 85.519531 198.824219 97.707031 193.417969 103.75 192.253906 C 109.789062 191.085938 117.105469 191.511719 117.105469 191.511719 Z M 116.996094 191.617188 " fill-opacity="1" fill-rule="evenodd"/><path fill="#fefefe" d="M 136.605469 207.835938 C 136.078125 215.996094 137.453125 222.671875 139.785156 222.777344 C 142.117188 222.992188 144.449219 216.527344 144.980469 208.363281 C 145.511719 200.203125 144.132812 193.523438 141.800781 193.417969 C 139.46875 193.207031 137.136719 199.671875 136.605469 207.835938 Z M 119.222656 206.5625 C 122.617188 189.179688 135.121094 176.882812 147.101562 179.109375 C 159.078125 181.441406 165.96875 197.339844 162.46875 214.828125 C 159.078125 232.210938 146.570312 244.507812 134.59375 242.28125 C 122.617188 239.949219 115.726562 224.050781 119.222656 206.5625 Z M 119.222656 206.5625 " fill-opacity="1" fill-rule="evenodd"/><path fill="#fefefe" d="M 261.253906 159.289062 C 260.726562 167.449219 262.101562 174.128906 264.433594 174.234375 C 266.765625 174.445312 269.097656 167.980469 269.628906 159.820312 C 270.160156 151.65625 268.78125 144.980469 266.449219 144.875 C 264.117188 144.660156 261.785156 151.128906 261.253906 159.289062 Z M 243.871094 158.015625 C 247.265625 140.632812 259.769531 128.339844 271.75 130.566406 C 283.726562 132.898438 290.613281 148.796875 287.117188 166.285156 C 283.726562 183.667969 271.21875 195.964844 259.242188 193.738281 C 247.265625 191.40625 240.375 175.507812 243.871094 158.015625 Z M 243.871094 158.015625 " fill-opacity="1" fill-rule="evenodd"/><path fill="#fefefe" d="M 218.117188 163.421875 L 218.117188 176.355469 C 222.25 174.765625 225.324219 170.628906 225.324219 167.449219 C 225.324219 163.953125 223.414062 162.257812 221.402344 162.257812 C 220.234375 162.257812 219.070312 162.785156 218.222656 163.316406 Z M 233.0625 179.109375 L 244.296875 201.261719 L 228.609375 206.136719 L 218.117188 185.152344 L 218.117188 211.226562 L 202.429688 216.101562 L 203.488281 155.367188 C 203.488281 155.367188 213.875 148.371094 225.324219 148.371094 C 236.769531 148.371094 241.011719 154.414062 241.011719 162.152344 C 241.011719 172.007812 235.816406 177.730469 233.0625 179.109375 Z M 233.0625 179.109375 " fill-opacity="1" fill-rule="evenodd"/></svg>